<svg width="96" height="116" viewBox="0 0 96 116" fill="none" xmlns="http://www.w3.org/2000/svg">
<g id="devices/smartphone/add_on/success/32">
<circle id="icn" cx="76" cy="92" r="20" fill="#ED5353"/>
<path id="Union" fill-rule="evenodd" clip-rule="evenodd" d="M64.5489 99.6035L69.2695 94.8829L71.6294 92.5231L64.5486 85.4423L69.2701 80.7227L73.9906 85.4432L76.3499 87.8025L83.4302 80.7222L88.1508 85.4427L81.0705 92.523L88.1514 99.604L83.4308 104.325L76.3499 97.2436L69.2685 104.325L64.5489 99.6035Z" fill="white"/>
<path id="Subtract" fill-rule="evenodd" clip-rule="evenodd" d="M38.0377 3C53.4352 3 66.0282 15.0077 66.9632 30.1698H67.0189V39.2264H76.0755V65.5734C73.5612 65.5888 71.1305 65.9563 68.8302 66.6292V46.4717H7.24529L7.24529 97.1887L50.4207 97.1887C50.9425 99.7595 51.8387 102.194 53.0498 104.434H3.45482e-06L0 39.2264H9.0566V30.1698H9.11229C10.0473 15.0077 22.6402 3 38.0377 3ZM16.3019 39.2264V31.9811C16.3019 19.9768 26.0334 10.2453 38.0377 10.2453C50.0421 10.2453 59.7736 19.9768 59.7736 31.9811V39.2264H16.3019ZM34.4151 71.8302V89.9434H41.6604V71.8302H34.4151Z" fill="#0050F2"/>
</g>
</svg>
